<svg width="50" height="50" viewBox="0 0 50 50" fill="none" xmlns="http://www.w3.org/2000/svg">
<path d="M25 50C38.8071 50 50 38.8071 50 25C50 11.1929 38.8071 0 25 0C11.1929 0 0 11.1929 0 25C0 38.8071 11.1929 50 25 50Z" fill="#F6F6F6"/>
<path d="M13.753 26.9185V24.2142C14.3014 24.1841 14.7145 24.1015 14.9925 23.9663C15.2704 23.8311 15.5108 23.6057 15.7137 23.2902C15.9165 22.9672 16.0554 22.5653 16.1306 22.0845C16.1907 21.7239 16.2207 21.0967 16.2207 20.2028C16.2207 18.7454 16.2883 17.7313 16.4235 17.1604C16.5587 16.582 16.8029 16.12 17.156 15.7744C17.509 15.4214 18.0236 15.1434 18.6997 14.9406C19.1579 14.8054 19.879 14.7378 20.8631 14.7378H21.4603V17.4308C20.6265 17.4308 20.0894 17.4797 19.849 17.5773C19.6162 17.6674 19.4433 17.8102 19.3307 18.0055C19.218 18.1933 19.1617 18.5201 19.1617 18.9858C19.1617 19.4591 19.1278 20.3568 19.0602 21.6789C19.0227 22.4226 18.925 23.0273 18.7673 23.493C18.6095 23.9513 18.4067 24.3306 18.1588 24.6311C17.9184 24.9316 17.5466 25.2433 17.0433 25.5664C17.4865 25.8218 17.847 26.1223 18.125 26.4678C18.4105 26.8058 18.6283 27.219 18.7785 27.7073C18.9288 28.1956 19.0265 28.8491 19.0715 29.6679C19.1241 30.9149 19.1504 31.7112 19.1504 32.0568C19.1504 32.5525 19.2105 32.8981 19.3307 33.0934C19.4509 33.2887 19.6312 33.4352 19.8715 33.5328C20.1194 33.638 20.649 33.6906 21.4603 33.6906V36.3949H20.8631C19.849 36.3949 19.0715 36.3123 18.5307 36.147C17.9898 35.9893 17.5315 35.7226 17.156 35.347C16.7878 34.9714 16.54 34.5056 16.4123 33.9498C16.2845 33.4014 16.2207 32.5338 16.2207 31.3469C16.2207 29.9646 16.1606 29.0669 16.0404 28.6538C15.8752 28.0528 15.6235 27.6246 15.2855 27.3693C14.9549 27.1063 14.4441 26.9561 13.753 26.9185ZM36.706 26.9185C36.1576 26.9486 35.7444 27.0312 35.4665 27.1664C35.1885 27.3016 34.9482 27.5308 34.7453 27.8538C34.55 28.1693 34.4111 28.5674 34.3284 29.0482C34.2683 29.4088 34.2383 30.0323 34.2383 30.9187C34.2383 32.376 34.1707 33.3939 34.0355 33.9723C33.9078 34.5507 33.6674 35.0127 33.3143 35.3583C32.9612 35.7113 32.4429 35.9893 31.7593 36.1921C31.3011 36.3273 30.5799 36.3949 29.5958 36.3949H28.9987V33.6906C29.8024 33.6906 30.3283 33.638 30.5762 33.5328C30.8241 33.4352 31.0043 33.2887 31.117 33.0934C31.2372 32.9056 31.2973 32.5826 31.2973 32.1243C31.3048 31.6661 31.3387 30.7909 31.3987 29.4989C31.4363 28.7176 31.5377 28.0941 31.703 27.6284C31.8682 27.1551 32.0861 26.757 32.3565 26.434C32.6345 26.1034 32.9875 25.8143 33.4157 25.5664C32.8598 25.2058 32.4542 24.8527 32.1988 24.5072C31.8457 24.0114 31.6053 23.3804 31.4776 22.6141C31.395 22.0883 31.3349 20.9314 31.2973 19.1436C31.2898 18.5802 31.2372 18.2046 31.1396 18.0168C31.0494 17.829 30.8804 17.6863 30.6325 17.5886C30.3921 17.4834 29.8475 17.4308 28.9987 17.4308V14.7378H29.5958C30.61 14.7378 31.3875 14.8166 31.9283 14.9744C32.4692 15.1322 32.9237 15.4026 33.2918 15.7857C33.6598 16.1613 33.9078 16.6271 34.0355 17.1829C34.1707 17.7313 34.2383 18.5989 34.2383 19.7859C34.2383 21.1606 34.2946 22.0583 34.4073 22.4789C34.5726 23.0799 34.8242 23.5118 35.1623 23.7748C35.5003 24.0301 36.0149 24.1766 36.706 24.2142V26.9185Z" fill="black"/>
</svg>
