<svg width="50" height="50" viewBox="0 0 50 50" fill="none" xmlns="http://www.w3.org/2000/svg">
<path d="M25 50C38.8071 50 50 38.8071 50 25C50 11.1929 38.8071 0 25 0C11.1929 0 0 11.1929 0 25C0 38.8071 11.1929 50 25 50Z" fill="#F6F6F6"/>
<path d="M25.1644 25.92C25.1644 26.336 25.1404 26.776 25.0924 27.24H14.5804C14.6604 28.536 15.1004 29.552 15.9004 30.288C16.7164 31.008 17.7004 31.368 18.8524 31.368C19.7964 31.368 20.5804 31.152 21.2044 30.72C21.8444 30.272 22.2924 29.68 22.5484 28.944H24.9004C24.5484 30.208 23.8444 31.24 22.7884 32.04C21.7324 32.824 20.4204 33.216 18.8524 33.216C17.6044 33.216 16.4844 32.936 15.4924 32.376C14.5164 31.816 13.7484 31.024 13.1884 30C12.6284 28.96 12.3484 27.76 12.3484 26.4C12.3484 25.04 12.6204 23.848 13.1644 22.824C13.7084 21.8 14.4684 21.016 15.4444 20.472C16.4364 19.912 17.5724 19.632 18.8524 19.632C20.1004 19.632 21.2044 19.904 22.1644 20.448C23.1244 20.992 23.8604 21.744 24.3724 22.704C24.9004 23.648 25.1644 24.72 25.1644 25.92ZM22.9084 25.464C22.9084 24.632 22.7244 23.92 22.3564 23.328C21.9884 22.72 21.4844 22.264 20.8444 21.96C20.2204 21.64 19.5244 21.48 18.7564 21.48C17.6524 21.48 16.7084 21.832 15.9244 22.536C15.1564 23.24 14.7164 24.216 14.6044 25.464H22.9084ZM34.9112 33L31.7912 28.104L28.7912 33H26.5112L30.7592 26.472L26.5112 19.848H28.9832L32.1032 24.72L35.0792 19.848H37.3592L33.1352 26.352L37.3832 33H34.9112Z" fill="black"/>
</svg>
