<svg width="54" height="54" viewBox="0 0 54 54" fill="none" xmlns="http://www.w3.org/2000/svg">
<circle cx="27" cy="27" r="27" fill="black"/>
<path d="M18.7496 20.5004C18.7496 18.5671 22.6674 17 27.5 17C32.3326 17 36.2504 18.5671 36.2504 20.5004V22.25C36.2504 24.1833 32.3326 25.7504 27.5 25.7504C22.6674 25.7504 18.7496 24.1833 18.7496 22.25V20.5004Z" fill="white"/>
<path d="M18.7496 25.3135V29.251C18.7496 31.1817 22.6674 32.7501 27.5 32.7501C32.3326 32.7501 36.2504 31.183 36.2504 29.2497V25.3135C35.6594 25.7393 35.0163 26.0877 34.3368 26.3504C32.5006 27.0854 30.0817 27.5001 27.5 27.5001C24.9196 27.5001 22.5007 27.084 20.6645 26.3504C19.985 26.0877 19.3419 25.7393 18.7509 25.3135H18.7496Z" fill="white"/>
<path d="M36.2504 32.3143C35.6593 32.7396 35.0162 33.0876 34.3368 33.3499C32.4993 34.0849 30.0817 34.4996 27.4987 34.4996C24.9183 34.4996 22.4994 34.0849 20.6632 33.3499C19.9837 33.0872 19.3406 32.7388 18.7496 32.313V34.4996C18.7496 36.4329 22.6674 38.0001 27.5 38.0001C32.3326 38.0001 36.2504 36.4329 36.2504 34.4996V32.3143Z" fill="white"/>
</svg>
