<svg width="54" height="54" viewBox="0 0 54 54" fill="none" xmlns="http://www.w3.org/2000/svg">
<circle cx="27" cy="27" r="27" fill="black"/>
<path d="M13.5284 38H39.3859C40.2759 38 41 37.2759 41 36.3859V18.6141C41 17.7241 40.2759 17 39.3859 17H13.5284C12.6383 17 11.9142 17.7241 11.9142 18.6141V36.3859C11.9142 37.2759 12.6383 38 13.5284 38ZM39.3859 36.8128H13.5284C13.2929 36.8128 13.1014 36.6213 13.1014 36.3859V34.5577H39.8128V36.3859C39.8128 36.6213 39.6213 36.8128 39.3859 36.8128ZM13.5284 18.1871H39.3859C39.6213 18.1871 39.8128 18.3787 39.8128 18.6141V33.3706H13.1014V18.6141C13.1014 18.3786 13.293 18.1871 13.5284 18.1871Z" fill="white"/>
<path d="M29.834 29.5518C30.0658 29.7836 30.4416 29.7835 30.6734 29.5517L33.3536 26.8715C33.4649 26.7602 33.5274 26.6092 33.5274 26.4518C33.5274 26.2944 33.4649 26.1434 33.3536 26.0321L30.6734 23.352C30.5575 23.2361 30.4056 23.1781 30.2537 23.1781C30.1018 23.1781 29.9498 23.2361 29.834 23.352C29.6022 23.5838 29.6022 23.9596 29.834 24.1915L32.0945 26.4519L29.834 28.7124C29.6021 28.9441 29.6021 29.32 29.834 29.5518Z" fill="white"/>
<path d="M22.6634 29.5517C22.8952 29.7835 23.2709 29.7835 23.5029 29.5518C23.7347 29.32 23.7347 28.9441 23.5029 28.7123L21.2424 26.4518L23.5029 24.1914C23.7347 23.9596 23.7347 23.5837 23.5029 23.3519C23.387 23.236 23.2351 23.178 23.0832 23.178C22.9313 23.178 22.7794 23.236 22.6634 23.3519L19.9833 26.032C19.872 26.1434 19.8094 26.2943 19.8094 26.4517C19.8094 26.6091 19.872 26.7601 19.9833 26.8714L22.6634 29.5517Z" fill="white"/>
<path d="M24.9974 29.6617C25.2901 29.8095 25.6471 29.6921 25.795 29.3995L28.6016 23.844C28.7494 23.5515 28.6321 23.1944 28.3394 23.0466C28.2536 23.0032 28.1622 22.9827 28.0723 22.9827C27.8554 22.9827 27.6465 23.1019 27.5419 23.3087L24.7353 28.8641C24.5875 29.1568 24.7048 29.5138 24.9974 29.6617Z" fill="white"/>
</svg>
