<svg width="54" height="54" viewBox="0 0 54 54" fill="none" xmlns="http://www.w3.org/2000/svg">
<circle cx="27" cy="27" r="27" fill="black"/>
<path d="M39.9164 16H14.5399C14.2417 16 14 16.2418 14 16.5399V37.2291C14 37.5273 14.2417 37.769 14.5399 37.769H39.9164C40.2145 37.769 40.4563 37.5273 40.4563 37.2291V16.5399C40.4563 16.2418 40.2145 16 39.9164 16ZM39.3765 17.0798V20.3315H15.0798V17.0798H39.3765ZM15.0798 36.6892V21.4114H39.3765V36.6892H15.0798Z" fill="white"/>
<path d="M22.4273 24.1279H18.1097C17.8116 24.1279 17.5698 24.3697 17.5698 24.6679V29.041C17.5698 29.3392 17.8116 29.581 18.1097 29.581H22.4273C22.7255 29.581 22.9672 29.3392 22.9672 29.041V24.6679C22.9672 24.3697 22.7255 24.1279 22.4273 24.1279ZM21.8873 28.5011H18.6497V25.2078H21.8873V28.5011Z" fill="white"/>
<path d="M25.0299 29.581H29.3471C29.6453 29.581 29.8871 29.3392 29.8871 29.041V24.6679C29.8871 24.3697 29.6453 24.1279 29.3471 24.1279H25.0299C24.7317 24.1279 24.4899 24.3697 24.4899 24.6679V29.041C24.4899 29.3392 24.7317 29.581 25.0299 29.581ZM25.5698 25.2078H28.8072V28.5011H25.5698V25.2078Z" fill="white"/>
<path d="M31.9501 29.581H36.2676C36.5658 29.581 36.8075 29.3392 36.8075 29.041V24.6679C36.8075 24.3697 36.5658 24.1279 36.2676 24.1279H31.9501C31.6519 24.1279 31.4102 24.3697 31.4102 24.6679V29.041C31.4102 29.3392 31.6519 29.581 31.9501 29.581ZM32.49 25.2078H35.7277V28.5011H32.49V25.2078Z" fill="white"/>
<path d="M22.4273 30.9512H18.1097C17.8116 30.9512 17.5698 31.1929 17.5698 31.4911C17.5698 31.7893 17.8116 32.031 18.1097 32.031H22.4273C22.7255 32.031 22.9672 31.7893 22.9672 31.4911C22.9672 31.193 22.7255 30.9512 22.4273 30.9512Z" fill="white"/>
<path d="M22.4273 32.9487H18.1097C17.8116 32.9487 17.5698 33.1905 17.5698 33.4887C17.5698 33.7869 17.8116 34.0286 18.1097 34.0286H22.4273C22.7255 34.0286 22.9672 33.7869 22.9672 33.4887C22.9672 33.1905 22.7255 32.9487 22.4273 32.9487Z" fill="white"/>
<path d="M29.3869 30.9512H25.0696C24.7714 30.9512 24.5296 31.1929 24.5296 31.4911C24.5296 31.7893 24.7714 32.031 25.0696 32.031H29.387C29.6852 32.031 29.9269 31.7893 29.9269 31.4911C29.9268 31.193 29.6851 30.9512 29.3869 30.9512Z" fill="white"/>
<path d="M29.3869 32.9487H25.0696C24.7714 32.9487 24.5296 33.1905 24.5296 33.4887C24.5296 33.7869 24.7714 34.0286 25.0696 34.0286H29.387C29.6852 34.0286 29.9269 33.7869 29.9269 33.4887C29.9268 33.1905 29.6851 32.9487 29.3869 32.9487Z" fill="white"/>
<path d="M36.3466 30.9512H32.0291C31.7309 30.9512 31.4891 31.1929 31.4891 31.4911C31.4891 31.7893 31.7309 32.031 32.0291 32.031H36.3466C36.6447 32.031 36.8865 31.7893 36.8865 31.4911C36.8865 31.193 36.6447 30.9512 36.3466 30.9512Z" fill="white"/>
<path d="M36.3466 32.9487H32.0291C31.7309 32.9487 31.4891 33.1905 31.4891 33.4887C31.4891 33.7869 31.7309 34.0286 32.0291 34.0286H36.3466C36.6447 34.0286 36.8865 33.7869 36.8865 33.4887C36.8865 33.1905 36.6447 32.9487 36.3466 32.9487Z" fill="white"/>
<path d="M18.1097 19.2337H18.3764C18.6745 19.2337 18.9163 18.9919 18.9163 18.6937C18.9163 18.3956 18.6745 18.1538 18.3764 18.1538H18.1097C17.8116 18.1538 17.5698 18.3956 17.5698 18.6937C17.5698 18.9919 17.8116 19.2337 18.1097 19.2337Z" fill="white"/>
<path d="M20.3486 19.2337H20.6151C20.9132 19.2337 21.155 18.9919 21.155 18.6937C21.155 18.3956 20.9133 18.1538 20.6151 18.1538H20.3486C20.0505 18.1538 19.8087 18.3956 19.8087 18.6937C19.8087 18.9919 20.0505 19.2337 20.3486 19.2337Z" fill="white"/>
<path d="M22.5874 19.2337H22.8537C23.1519 19.2337 23.3937 18.9919 23.3937 18.6937C23.3937 18.3956 23.1519 18.1538 22.8537 18.1538H22.5874C22.2893 18.1538 22.0475 18.3956 22.0475 18.6937C22.0475 18.9919 22.2892 19.2337 22.5874 19.2337Z" fill="white"/>
</svg>
