<svg width="50" height="50" viewBox="0 0 50 50" fill="none" xmlns="http://www.w3.org/2000/svg">
<path d="M25 50C38.8071 50 50 38.8071 50 25C50 11.1929 38.8071 0 25 0C11.1929 0 0 11.1929 0 25C0 38.8071 11.1929 50 25 50Z" fill="#F6F6F6"/>
<path d="M22.7385 16.8768V27.9075C22.7385 29.6152 22.2538 30.9306 21.2846 31.8537C20.3308 32.7768 19.0385 33.2383 17.4077 33.2383C15.7 33.2383 14.3308 32.7537 13.3 31.7845C12.2692 30.8152 11.7538 29.4383 11.7538 27.6537H15.6769C15.6769 28.3306 15.8154 28.846 16.0923 29.1998C16.3692 29.5383 16.7692 29.7075 17.2923 29.7075C17.7692 29.7075 18.1385 29.5537 18.4 29.246C18.6615 28.9383 18.7923 28.4921 18.7923 27.9075V16.8768H22.7385ZM31.7875 33.2383C30.6029 33.2383 29.5414 33.046 28.6029 32.6614C27.6644 32.2768 26.9106 31.7075 26.3414 30.9537C25.7875 30.1998 25.4952 29.2922 25.4644 28.2306H29.6644C29.726 28.8306 29.9337 29.2922 30.2875 29.6152C30.6413 29.9229 31.1029 30.0768 31.6721 30.0768C32.2567 30.0768 32.7183 29.946 33.0567 29.6845C33.3952 29.4075 33.5644 29.0306 33.5644 28.5537C33.5644 28.1537 33.426 27.8229 33.149 27.5614C32.8875 27.2998 32.5567 27.0845 32.1567 26.9152C31.7721 26.746 31.2183 26.5537 30.4952 26.3383C29.449 26.0152 28.5952 25.6922 27.9337 25.3691C27.2721 25.046 26.7029 24.5691 26.226 23.9383C25.749 23.3075 25.5106 22.4845 25.5106 21.4691C25.5106 19.9614 26.0567 18.7845 27.149 17.9383C28.2414 17.0768 29.6644 16.646 31.4183 16.646C33.2029 16.646 34.6414 17.0768 35.7337 17.9383C36.826 18.7845 37.4106 19.9691 37.4875 21.4922H33.2183C33.1875 20.9691 32.9952 20.5614 32.6414 20.2691C32.2875 19.9614 31.8337 19.8075 31.2798 19.8075C30.8029 19.8075 30.4183 19.9383 30.126 20.1998C29.8337 20.446 29.6875 20.8075 29.6875 21.2845C29.6875 21.8075 29.9337 22.2152 30.426 22.5075C30.9183 22.7998 31.6875 23.1152 32.7337 23.4537C33.7798 23.8075 34.626 24.146 35.2721 24.4691C35.9337 24.7922 36.5029 25.2614 36.9798 25.8768C37.4567 26.4922 37.6952 27.2845 37.6952 28.2537C37.6952 29.1768 37.4567 30.0152 36.9798 30.7691C36.5183 31.5229 35.8414 32.1229 34.949 32.5691C34.0567 33.0152 33.0029 33.2383 31.7875 33.2383Z" fill="black"/>
</svg>
