<svg width="50" height="50" viewBox="0 0 50 50" fill="none" xmlns="http://www.w3.org/2000/svg">
<path d="M25 50C38.8071 50 50 38.8071 50 25C50 11.1929 38.8071 0 25 0C11.1929 0 0 11.1929 0 25C0 38.8071 11.1929 50 25 50Z" fill="#F6F6F6"/>
<path d="M32.4174 21.7682C30.6586 13.9983 26.5019 11.4435 26.0542 10.4675C25.5648 9.77881 25.0688 8.55396 25.0688 8.55396C25.0606 8.53327 25.0476 8.49681 25.0323 8.46143C24.9817 9.15008 24.9557 9.41573 24.3052 10.1103C23.298 10.8986 18.1302 15.2389 17.7098 24.0665C17.3177 32.2996 23.6515 37.2055 24.5081 37.831L24.6054 37.9002V37.8942C24.6109 37.9355 24.8773 39.8541 25.0644 41.8868H25.7355C25.893 40.4499 26.1291 39.0226 26.4426 37.6117L26.497 37.5763C26.8801 37.3013 27.2454 37.0022 27.5907 36.6808L27.6298 36.6454C29.4507 34.9616 32.7242 31.0672 32.6921 24.858C32.6853 23.8223 32.5934 22.7888 32.4174 21.7682ZM24.9932 33.1826C24.9932 33.1826 24.9932 21.6353 25.3739 21.6375C25.6708 21.6375 26.0554 36.5322 26.0554 36.5322C25.5267 36.4685 24.9932 34.0808 24.9932 33.1826Z" fill="black"/>
</svg>
